# xmcd
#
# Track frame offsets: 
#        150
#        12203
#        27498
#        40770
#        51254
#        64514
#        78458
#        92107
#        104639
#        119720
#        131400
#        143058
#        152901
#        163157
#        176132
#        186561
#        199202
#        209805
#        222732
#        233046
#
# Disc length: 3318 seconds
#
# Revision: 0
# Processed by: cddbd v1.5.2PL0 Copyright (c) Steve Scherf et al.
# Submitted via: ExactAudioCopy v1.3
#
DISCID=380cf414
DTITLE=Ray Charles - La voix des geants
DYEAR=2016
DGENRE=R&B
TTITLE0=Mess around
TTITLE1=Sinner's prayer
TTITLE2=Don't you know
TTITLE3=Blackjack
TTITLE4=I got a woman
TTITLE5=Come back baby
TTITLE6=A fool for you
TTITLE7=Mary Ann
TTITLE8=(I'll) Drown in my own tears
TTITLE9=Hallelujah I love her so
TTITLE10=Lonely avenue
TTITLE11=I want to know
TTITLE12=It's all right
TTITLE13=Ain't that love
TTITLE14=Get on the right track baby
TTITLE15=That's enough
TTITLE16=Swannee River rock
TTITLE17=What kind of man are you
TTITLE18=Yes indeed!
TTITLE19=(Night time is) The right time
EXTD=
EXTT0=
EXTT1=
EXTT2=
EXTT3=
EXTT4=
EXTT5=
EXTT6=
EXTT7=
EXTT8=
EXTT9=
EXTT10=
EXTT11=
EXTT12=
EXTT13=
EXTT14=
EXTT15=
EXTT16=
EXTT17=
EXTT18=
EXTT19=
PLAYORDER=
